# xmcd CD database file
#
# Track frame offsets:
#	150
#	17557
#	44560
#
# Disc length: 765 seconds
#
# Revision: 0
# Processed by: cddbd v1.5PL3 Copyright (c) Steve Scherf et al.
# Submitted via: CDex 1.50Beta5
#
DISCID=1d02fb03
DTITLE=遊佐未森 - 東京の空の下
DYEAR=1900
DGENRE=Blues
TTITLE0=東京の空の下
TTITLE1=優しい時間
TTITLE2=いつも同じ瞳
EXTD=
EXTT0=
EXTT1=
EXTT2=
PLAYORDER=
